<svg xmlns="http://www.w3.org/2000/svg"
    xmlns:xlink="http://www.w3.org/1999/xlink" contentStyleType="text/css" data-diagram-type="SEQUENCE" height="328px" preserveAspectRatio="none" style="width:374px;height:328px;background:#FFFFFF;" version="1.1" viewBox="0 0 374 328" width="374px" zoomAndPan="magnify">
    <defs/>
    <g>
        <g>
            <title>Referral Manager</title>
            <rect fill="#000000" fill-opacity="0.00000" height="166.7969" width="8" x="64.8398" y="81.2969"/>
            <line style="stroke:#181818;stroke-width:0.5;stroke-dasharray:5,5;" x1="68" x2="68" y1="81.2969" y2="248.0938"/>
        </g>
        <g>
            <title>PRS</title>
            <rect fill="#000000" fill-opacity="0.00000" height="166.7969" width="8" x="291.1841" y="81.2969"/>
            <line style="stroke:#181818;stroke-width:0.5;stroke-dasharray:5,5;" x1="294.6558" x2="294.6558" y1="81.2969" y2="248.0938"/>
        </g>
        <g>
            <title>OTV</title>
            <rect fill="#000000" fill-opacity="0.00000" height="166.7969" width="8" x="343.2866" y="81.2969"/>
            <line style="stroke:#181818;stroke-width:0.5;stroke-dasharray:5,5;" x1="346.7124" x2="346.7124" y1="81.2969" y2="248.0938"/>
        </g>
        <g class="participant participant-head" data-participant="RM">
            <text fill="#000000" font-family="sans-serif" font-size="14" lengthAdjust="spacing" textLength="121.6797" x="5" y="77.9951">Referral Manager</text>
            <ellipse cx="68.8398" cy="13.5" fill="#E2E2F0" rx="8" ry="8" style="stroke:#181818;stroke-width:0.5;"/>
            <path d="M68.8398,21.5 L68.8398,48.5 M55.8398,29.5 L81.8398,29.5 M68.8398,48.5 L55.8398,63.5 M68.8398,48.5 L81.8398,63.5" fill="none" style="stroke:#181818;stroke-width:0.5;"/>
        </g>
        <g class="participant participant-tail" data-participant="RM">
            <text fill="#000000" font-family="sans-serif" font-size="14" lengthAdjust="spacing" textLength="121.6797" x="5" y="260.0889">Referral Manager</text>
            <ellipse cx="68.8398" cy="271.8906" fill="#E2E2F0" rx="8" ry="8" style="stroke:#181818;stroke-width:0.5;"/>
            <path d="M68.8398,279.8906 L68.8398,306.8906 M55.8398,287.8906 L81.8398,287.8906 M68.8398,306.8906 L55.8398,321.8906 M68.8398,306.8906 L81.8398,321.8906" fill="none" style="stroke:#181818;stroke-width:0.5;"/>
        </g>
        <g class="participant participant-head" data-participant="PRS">
            <rect fill="#E2E2F0" height="30.2969" rx="2.5" ry="2.5" style="stroke:#181818;stroke-width:0.5;" width="41.0566" x="274.6558" y="50"/>
            <text fill="#000000" font-family="sans-serif" font-size="14" lengthAdjust="spacing" textLength="27.0566" x="281.6558" y="69.9951">PRS</text>
        </g>
        <g class="participant participant-tail" data-participant="PRS">
            <rect fill="#E2E2F0" height="30.2969" rx="2.5" ry="2.5" style="stroke:#181818;stroke-width:0.5;" width="41.0566" x="274.6558" y="247.0938"/>
            <text fill="#000000" font-family="sans-serif" font-size="14" lengthAdjust="spacing" textLength="27.0566" x="281.6558" y="267.0889">PRS</text>
        </g>
        <g class="participant participant-head" data-participant="OTV">
            <rect fill="#E2E2F0" height="30.2969" rx="2.5" ry="2.5" style="stroke:#181818;stroke-width:0.5;" width="43.1484" x="325.7124" y="50"/>
            <text fill="#000000" font-family="sans-serif" font-size="14" lengthAdjust="spacing" textLength="29.1484" x="332.7124" y="69.9951">OTV</text>
        </g>
        <g class="participant participant-tail" data-participant="OTV">
            <rect fill="#E2E2F0" height="30.2969" rx="2.5" ry="2.5" style="stroke:#181818;stroke-width:0.5;" width="43.1484" x="325.7124" y="247.0938"/>
            <text fill="#000000" font-family="sans-serif" font-size="14" lengthAdjust="spacing" textLength="29.1484" x="332.7124" y="267.0889">OTV</text>
        </g>
        <g class="message" data-participant-1="RM" data-participant-2="PRS">
            <polygon fill="#181818" points="283.1841,123.5625,293.1841,127.5625,283.1841,131.5625,287.1841,127.5625" style="stroke:#181818;stroke-width:1;"/>
            <line style="stroke:#181818;stroke-width:1;" x1="68.8398" x2="289.1841" y1="127.5625" y2="127.5625"/>
            <text fill="#000000" font-family="sans-serif" font-size="13" lengthAdjust="spacing" textLength="202.3442" x="75.8398" y="107.3638">Request reversible pseudonym</text>
            <text fill="#000000" font-family="sans-serif" font-size="13" lengthAdjust="spacing" textLength="118.8345" x="75.8398" y="122.4966">(for OTV and BSN)</text>
        </g>
        <g class="message" data-participant-1="PRS" data-participant-2="RM">
            <polygon fill="#181818" points="79.8398,152.6953,69.8398,156.6953,79.8398,160.6953,75.8398,156.6953" style="stroke:#181818;stroke-width:1;"/>
            <line style="stroke:#181818;stroke-width:1;stroke-dasharray:2,2;" x1="73.8398" x2="294.1841" y1="156.6953" y2="156.6953"/>
            <text fill="#000000" font-family="sans-serif" font-size="13" lengthAdjust="spacing" textLength="148.5098" x="85.8398" y="151.6294">Reversible pseudonym</text>
        </g>
        <g class="message" data-participant-1="RM" data-participant-2="OTV">
            <polygon fill="#181818" points="335.2866,196.9609,345.2866,200.9609,335.2866,204.9609,339.2866,200.9609" style="stroke:#181818;stroke-width:1;"/>
            <line style="stroke:#181818;stroke-width:1;" x1="68.8398" x2="341.2866" y1="200.9609" y2="200.9609"/>
            <text fill="#000000" font-family="sans-serif" font-size="13" lengthAdjust="spacing" textLength="130.2666" x="75.8398" y="180.7622">Check authorization</text>
            <text fill="#000000" font-family="sans-serif" font-size="13" lengthAdjust="spacing" textLength="213.6494" x="75.8398" y="195.895">(reversible pseudonym + org ID)</text>
        </g>
        <g class="message" data-participant-1="OTV" data-participant-2="RM">
            <polygon fill="#181818" points="79.8398,226.0938,69.8398,230.0938,79.8398,234.0938,75.8398,230.0938" style="stroke:#181818;stroke-width:1;"/>
            <line style="stroke:#181818;stroke-width:1;stroke-dasharray:2,2;" x1="73.8398" x2="346.2866" y1="230.0938" y2="230.0938"/>
            <text fill="#000000" font-family="sans-serif" font-size="13" lengthAdjust="spacing" textLength="131.1489" x="85.8398" y="225.0278">Authorization status</text>
        </g></g>
</svg>