<svg xmlns="http://www.w3.org/2000/svg"
    xmlns:xlink="http://www.w3.org/1999/xlink" contentStyleType="text/css" data-diagram-type="SEQUENCE" height="391px" preserveAspectRatio="none" style="width:463px;height:391px;background:#FFFFFF;" version="1.1" viewBox="0 0 463 391" width="463px" zoomAndPan="magnify">
    <defs/>
    <g>
        <g>
            <title>User</title>
            <rect fill="#000000" fill-opacity="0.00000" height="228.9297" width="8" x="19.9551" y="81.2969"/>
            <line style="stroke:#181818;stroke-width:0.5;stroke-dasharray:5,5;" x1="23" x2="23" y1="81.2969" y2="310.2266"/>
        </g>
        <g>
            <title>Referral Manager</title>
            <rect fill="#000000" fill-opacity="0.00000" height="228.9297" width="8" x="218.1982" y="81.2969"/>
            <line style="stroke:#181818;stroke-width:0.5;stroke-dasharray:5,5;" x1="221.3584" x2="221.3584" y1="81.2969" y2="310.2266"/>
        </g>
        <g>
            <title>NVI</title>
            <rect fill="#000000" fill-opacity="0.00000" height="228.9297" width="8" x="411.4712" y="81.2969"/>
            <line style="stroke:#181818;stroke-width:0.5;stroke-dasharray:5,5;" x1="415.3818" x2="415.3818" y1="81.2969" y2="310.2266"/>
        </g>
        <g class="participant participant-head" data-participant="User">
            <text fill="#000000" font-family="sans-serif" font-size="14" lengthAdjust="spacing" textLength="31.9102" x="5" y="77.9951">User</text>
            <ellipse cx="23.9551" cy="13.5" fill="#E2E2F0" rx="8" ry="8" style="stroke:#181818;stroke-width:0.5;"/>
            <path d="M23.9551,21.5 L23.9551,48.5 M10.9551,29.5 L36.9551,29.5 M23.9551,48.5 L10.9551,63.5 M23.9551,48.5 L36.9551,63.5" fill="none" style="stroke:#181818;stroke-width:0.5;"/>
        </g>
        <g class="participant participant-tail" data-participant="User">
            <text fill="#000000" font-family="sans-serif" font-size="14" lengthAdjust="spacing" textLength="31.9102" x="5" y="322.2217">User</text>
            <ellipse cx="23.9551" cy="334.0234" fill="#E2E2F0" rx="8" ry="8" style="stroke:#181818;stroke-width:0.5;"/>
            <path d="M23.9551,342.0234 L23.9551,369.0234 M10.9551,350.0234 L36.9551,350.0234 M23.9551,369.0234 L10.9551,384.0234 M23.9551,369.0234 L36.9551,384.0234" fill="none" style="stroke:#181818;stroke-width:0.5;"/>
        </g>
        <g class="participant participant-head" data-participant="RM">
            <rect fill="#E2E2F0" height="30.2969" rx="2.5" ry="2.5" style="stroke:#181818;stroke-width:0.5;" width="135.6797" x="154.3584" y="50"/>
            <text fill="#000000" font-family="sans-serif" font-size="14" lengthAdjust="spacing" textLength="121.6797" x="161.3584" y="69.9951">Referral Manager</text>
        </g>
        <g class="participant participant-tail" data-participant="RM">
            <rect fill="#E2E2F0" height="30.2969" rx="2.5" ry="2.5" style="stroke:#181818;stroke-width:0.5;" width="135.6797" x="154.3584" y="309.2266"/>
            <text fill="#000000" font-family="sans-serif" font-size="14" lengthAdjust="spacing" textLength="121.6797" x="161.3584" y="329.2217">Referral Manager</text>
        </g>
        <g class="participant participant-head" data-participant="NVI">
            <rect fill="#E2E2F0" height="30.2969" rx="2.5" ry="2.5" style="stroke:#181818;stroke-width:0.5;" width="38.1787" x="396.3818" y="50"/>
            <text fill="#000000" font-family="sans-serif" font-size="14" lengthAdjust="spacing" textLength="24.1787" x="403.3818" y="69.9951">NVI</text>
        </g>
        <g class="participant participant-tail" data-participant="NVI">
            <rect fill="#E2E2F0" height="30.2969" rx="2.5" ry="2.5" style="stroke:#181818;stroke-width:0.5;" width="38.1787" x="396.3818" y="309.2266"/>
            <text fill="#000000" font-family="sans-serif" font-size="14" lengthAdjust="spacing" textLength="24.1787" x="403.3818" y="329.2217">NVI</text>
        </g>
        <g class="message" data-participant-1="User" data-participant-2="RM">
            <polygon fill="#181818" points="210.1982,108.4297,220.1982,112.4297,210.1982,116.4297,214.1982,112.4297" style="stroke:#181818;stroke-width:1;"/>
            <line style="stroke:#181818;stroke-width:1;" x1="23.9551" x2="216.1982" y1="112.4297" y2="112.4297"/>
            <text fill="#000000" font-family="sans-serif" font-size="13" lengthAdjust="spacing" textLength="174.2432" x="30.9551" y="107.3638">Send FHIR Bundle (JSON)</text>
        </g>
        <g class="message" data-participant-1="RM" data-participant-2="RM">
            <line style="stroke:#181818;stroke-width:1;" x1="222.1982" x2="264.1982" y1="141.5625" y2="141.5625"/>
            <line style="stroke:#181818;stroke-width:1;" x1="264.1982" x2="264.1982" y1="141.5625" y2="154.5625"/>
            <line style="stroke:#181818;stroke-width:1;" x1="223.1982" x2="264.1982" y1="154.5625" y2="154.5625"/>
            <polygon fill="#181818" points="233.1982,150.5625,223.1982,154.5625,233.1982,158.5625,229.1982,154.5625" style="stroke:#181818;stroke-width:1;"/>
            <text fill="#000000" font-family="sans-serif" font-size="13" lengthAdjust="spacing" textLength="131.1045" x="229.1982" y="136.4966">Parse FHIR resource</text>
        </g>
        <path d="M227,167.5625 L227,207.5625 L456,207.5625 L456,177.5625 L446,167.5625 L227,167.5625" fill="#FEFFDD" style="stroke:#181818;stroke-width:0.5;"/>
        <path d="M446,167.5625 L446,177.5625 L456,177.5625 L446,167.5625" fill="#FEFFDD" style="stroke:#181818;stroke-width:0.5;"/>
        <text fill="#000000" font-family="sans-serif" font-size="13" lengthAdjust="spacing" textLength="208.1841" x="233" y="184.6294">Creating pseudonym for patient</text>
        <text fill="#000000" font-family="sans-serif" font-size="13" lengthAdjust="spacing" textLength="196.4727" x="233" y="199.7622">(details omitted for simplicity)</text>
        <g class="message" data-participant-1="RM" data-participant-2="NVI">
            <polygon fill="#181818" points="403.4712,229.9609,413.4712,233.9609,403.4712,237.9609,407.4712,233.9609" style="stroke:#181818;stroke-width:1;"/>
            <line style="stroke:#181818;stroke-width:1;" x1="222.1982" x2="409.4712" y1="233.9609" y2="233.9609"/>
            <text fill="#000000" font-family="sans-serif" font-size="13" lengthAdjust="spacing" textLength="149.6333" x="229.1982" y="228.895">Create referral request</text>
        </g>
        <g class="message" data-participant-1="NVI" data-participant-2="RM">
            <polygon fill="#181818" points="233.1982,259.0938,223.1982,263.0938,233.1982,267.0938,229.1982,263.0938" style="stroke:#181818;stroke-width:1;"/>
            <line style="stroke:#181818;stroke-width:1;stroke-dasharray:2,2;" x1="227.1982" x2="414.4712" y1="263.0938" y2="263.0938"/>
            <text fill="#000000" font-family="sans-serif" font-size="13" lengthAdjust="spacing" textLength="169.2729" x="239.1982" y="258.0278">Referral created response</text>
        </g>
        <g class="message" data-participant-1="RM" data-participant-2="User">
            <polygon fill="#181818" points="34.9551,288.2266,24.9551,292.2266,34.9551,296.2266,30.9551,292.2266" style="stroke:#181818;stroke-width:1;"/>
            <line style="stroke:#181818;stroke-width:1;stroke-dasharray:2,2;" x1="28.9551" x2="221.1982" y1="292.2266" y2="292.2266"/>
            <text fill="#000000" font-family="sans-serif" font-size="13" lengthAdjust="spacing" textLength="120.5039" x="40.9551" y="287.1606">Acknowledgement</text>
        </g>
    </g>
</svg>